<svg xmlns="http://www.w3.org/2000/svg" width="2400" height="1220" viewBox="0 0 2400 1220" role="img" aria-label="Issue Finder task lifecycle and control loop">
<defs>
  <filter id="shadow" x="-20%" y="-20%" width="140%" height="140%"><feDropShadow dx="0" dy="8" stdDeviation="9" flood-color="#14213d" flood-opacity="0.11"/></filter>
  <marker id="arrow" markerWidth="13" markerHeight="13" refX="10.5" refY="6.5" orient="auto" markerUnits="strokeWidth"><path d="M2,2 L11,6.5 L2,11 Z" fill="#8490a3"/></marker>
  <style>text { font-family: Inter, ui-sans-serif, -apple-system, BlinkMacSystemFont, "Segoe UI", sans-serif; letter-spacing: 0; }</style>
</defs>
<rect x="0" y="0" width="2400" height="1220" fill="#f7f8fb"/>

<text x="1200" y="66" text-anchor="middle" font-size="44" font-weight="850" fill="#172033">Issue Finder Task Lifecycle</text>
<text x="1200" y="106" text-anchor="middle" font-size="24" font-weight="550" fill="#5c667a">From GitHub issue discovery to native agent result and approved GitHub follow-up</text>
<rect x="90" y="220" width="330" height="118" rx="20" fill="#f1f3f7" stroke="#a7adb8" stroke-width="2.3" filter="url(#shadow)"/>
<rect x="108" y="238" width="42" height="42" rx="999" fill="#ffffff" stroke="#a7adb8" stroke-width="1.5"/>
<text x="129.0" y="265.0" text-anchor="middle" font-size="18" font-weight="750" fill="#172033">1</text>
<text x="275.0" y="268" text-anchor="middle" font-size="25" font-weight="850" fill="#172033">GitHub Issue</text>
<text x="275.0" y="300" text-anchor="middle" font-size="17" font-weight="550" fill="#5c667a">issue, comments, repo, PR signals</text>
<rect x="478" y="220" width="330" height="118" rx="20" fill="#e7f0ff" stroke="#6f9de8" stroke-width="2.3" filter="url(#shadow)"/>
<rect x="496" y="238" width="42" height="42" rx="999" fill="#ffffff" stroke="#6f9de8" stroke-width="1.5"/>
<text x="517.0" y="265.0" text-anchor="middle" font-size="18" font-weight="750" fill="#172033">2</text>
<text x="663.0" y="268" text-anchor="middle" font-size="25" font-weight="850" fill="#172033">Discover</text>
<text x="663.0" y="300" text-anchor="middle" font-size="17" font-weight="550" fill="#5c667a">trusted search and recall</text>
<rect x="866" y="220" width="330" height="118" rx="20" fill="#e7f0ff" stroke="#6f9de8" stroke-width="2.3" filter="url(#shadow)"/>
<rect x="884" y="238" width="42" height="42" rx="999" fill="#ffffff" stroke="#6f9de8" stroke-width="1.5"/>
<text x="905.0" y="265.0" text-anchor="middle" font-size="18" font-weight="750" fill="#172033">3</text>
<text x="1051.0" y="268" text-anchor="middle" font-size="25" font-weight="850" fill="#172033">Score</text>
<text x="1051.0" y="300" text-anchor="middle" font-size="17" font-weight="550" fill="#5c667a">fit, value, freshness, competition</text>
<rect x="1254" y="220" width="330" height="118" rx="20" fill="#e7f0ff" stroke="#6f9de8" stroke-width="2.3" filter="url(#shadow)"/>
<rect x="1272" y="238" width="42" height="42" rx="999" fill="#ffffff" stroke="#6f9de8" stroke-width="1.5"/>
<text x="1293.0" y="265.0" text-anchor="middle" font-size="18" font-weight="750" fill="#172033">4</text>
<text x="1439.0" y="268" text-anchor="middle" font-size="25" font-weight="850" fill="#172033">Confirm</text>
<text x="1439.0" y="300" text-anchor="middle" font-size="17" font-weight="550" fill="#5c667a">evidence + optional LLM review</text>
<rect x="1642" y="220" width="330" height="118" rx="20" fill="#e9f8ef" stroke="#63b67a" stroke-width="2.3" filter="url(#shadow)"/>
<rect x="1660" y="238" width="42" height="42" rx="999" fill="#ffffff" stroke="#63b67a" stroke-width="1.5"/>
<text x="1681.0" y="265.0" text-anchor="middle" font-size="18" font-weight="750" fill="#172033">5</text>
<text x="1827.0" y="268" text-anchor="middle" font-size="25" font-weight="850" fill="#172033">Package</text>
<text x="1827.0" y="300" text-anchor="middle" font-size="17" font-weight="550" fill="#5c667a">IssueTaskPackage + context pack</text>
<rect x="2030" y="220" width="330" height="118" rx="20" fill="#fff4dc" stroke="#e3b64b" stroke-width="2.3" filter="url(#shadow)"/>
<rect x="2048" y="238" width="42" height="42" rx="999" fill="#ffffff" stroke="#e3b64b" stroke-width="1.5"/>
<text x="2069.0" y="265.0" text-anchor="middle" font-size="18" font-weight="750" fill="#172033">6</text>
<text x="2215.0" y="268" text-anchor="middle" font-size="25" font-weight="850" fill="#172033">Approve</text>
<text x="2215.0" y="300" text-anchor="middle" font-size="17" font-weight="550" fill="#5c667a">human dispatch decision</text>
<rect x="2030" y="508" width="330" height="118" rx="20" fill="#e9f8ef" stroke="#63b67a" stroke-width="2.3" filter="url(#shadow)"/>
<rect x="2048" y="526" width="42" height="42" rx="999" fill="#ffffff" stroke="#63b67a" stroke-width="1.5"/>
<text x="2069.0" y="553.0" text-anchor="middle" font-size="18" font-weight="750" fill="#172033">7</text>
<text x="2215.0" y="556" text-anchor="middle" font-size="25" font-weight="850" fill="#172033">Dispatch</text>
<text x="2215.0" y="588" text-anchor="middle" font-size="17" font-weight="550" fill="#5c667a">run state + session link</text>
<rect x="1642" y="508" width="330" height="118" rx="20" fill="#f3eefe" stroke="#a68be8" stroke-width="2.3" filter="url(#shadow)"/>
<rect x="1660" y="526" width="42" height="42" rx="999" fill="#ffffff" stroke="#a68be8" stroke-width="1.5"/>
<text x="1681.0" y="553.0" text-anchor="middle" font-size="18" font-weight="750" fill="#172033">8</text>
<text x="1827.0" y="556" text-anchor="middle" font-size="25" font-weight="850" fill="#172033">Execute</text>
<text x="1827.0" y="588" text-anchor="middle" font-size="17" font-weight="550" fill="#5c667a">native agent thread/workspace</text>
<rect x="1254" y="508" width="330" height="118" rx="20" fill="#e9f8ef" stroke="#63b67a" stroke-width="2.3" filter="url(#shadow)"/>
<rect x="1272" y="526" width="42" height="42" rx="999" fill="#ffffff" stroke="#63b67a" stroke-width="1.5"/>
<text x="1293.0" y="553.0" text-anchor="middle" font-size="18" font-weight="750" fill="#172033">9</text>
<text x="1439.0" y="556" text-anchor="middle" font-size="25" font-weight="850" fill="#172033">Import Result</text>
<text x="1439.0" y="588" text-anchor="middle" font-size="17" font-weight="550" fill="#5c667a">fix_result, patch, PR/session refs</text>
<rect x="866" y="508" width="330" height="118" rx="20" fill="#fff4dc" stroke="#e3b64b" stroke-width="2.3" filter="url(#shadow)"/>
<rect x="884" y="526" width="42" height="42" rx="999" fill="#ffffff" stroke="#e3b64b" stroke-width="1.5"/>
<text x="905.0" y="553.0" text-anchor="middle" font-size="18" font-weight="750" fill="#172033">10</text>
<text x="1051.0" y="556" text-anchor="middle" font-size="25" font-weight="850" fill="#172033">Learn</text>
<text x="1051.0" y="588" text-anchor="middle" font-size="17" font-weight="550" fill="#5c667a">memory event + eval observation</text>
<rect x="478" y="508" width="330" height="118" rx="20" fill="#e7fbfb" stroke="#66bfc2" stroke-width="2.3" filter="url(#shadow)"/>
<rect x="496" y="526" width="42" height="42" rx="999" fill="#ffffff" stroke="#66bfc2" stroke-width="1.5"/>
<text x="517.0" y="553.0" text-anchor="middle" font-size="18" font-weight="750" fill="#172033">11</text>
<text x="663.0" y="556" text-anchor="middle" font-size="25" font-weight="850" fill="#172033">Draft Follow-up</text>
<text x="663.0" y="588" text-anchor="middle" font-size="17" font-weight="550" fill="#5c667a">tracking or result comment</text>
<rect x="90" y="508" width="330" height="118" rx="20" fill="#e7fbfb" stroke="#66bfc2" stroke-width="2.3" filter="url(#shadow)"/>
<rect x="108" y="526" width="42" height="42" rx="999" fill="#ffffff" stroke="#66bfc2" stroke-width="1.5"/>
<text x="129.0" y="553.0" text-anchor="middle" font-size="18" font-weight="750" fill="#172033">12</text>
<text x="275.0" y="556" text-anchor="middle" font-size="25" font-weight="850" fill="#172033">Publish</text>
<text x="275.0" y="588" text-anchor="middle" font-size="17" font-weight="550" fill="#5c667a">approved GitHub projection</text>
<path d="M 420 279.0 L 478 279.0" fill="none" stroke="#8490a3" stroke-width="3" marker-end="url(#arrow)"/>
<path d="M 808 279.0 L 866 279.0" fill="none" stroke="#8490a3" stroke-width="3" marker-end="url(#arrow)"/>
<path d="M 1196 279.0 L 1254 279.0" fill="none" stroke="#8490a3" stroke-width="3" marker-end="url(#arrow)"/>
<path d="M 1584 279.0 L 1642 279.0" fill="none" stroke="#8490a3" stroke-width="3" marker-end="url(#arrow)"/>
<path d="M 1972 279.0 L 2030 279.0" fill="none" stroke="#8490a3" stroke-width="3" marker-end="url(#arrow)"/>
<path d="M 2195.0 338 L 2195.0 480" fill="none" stroke="#8490a3" stroke-width="3" marker-end="url(#arrow)"/>
<path d="M 2195.0 480 L 2360 567.0" fill="none" stroke="#8490a3" stroke-width="3" marker-end="url(#arrow)"/>
<path d="M 2030 567.0 L 1972 567.0" fill="none" stroke="#8490a3" stroke-width="3" marker-end="url(#arrow)"/>
<path d="M 1642 567.0 L 1584 567.0" fill="none" stroke="#8490a3" stroke-width="3" marker-end="url(#arrow)"/>
<path d="M 1254 567.0 L 1196 567.0" fill="none" stroke="#8490a3" stroke-width="3" marker-end="url(#arrow)"/>
<path d="M 866 567.0 L 808 567.0" fill="none" stroke="#8490a3" stroke-width="3" marker-end="url(#arrow)"/>
<path d="M 478 567.0 L 420 567.0" fill="none" stroke="#8490a3" stroke-width="3" marker-end="url(#arrow)"/>
<rect x="1450" y="645" width="820" height="150" rx="18" fill="#ffffff" stroke="#9fb9e9" stroke-width="2.3" stroke-dasharray="10 8" filter="url(#shadow)"/>
<text x="1860" y="690" text-anchor="middle" font-size="27" font-weight="850" fill="#172033">Independent Offline Stop Point</text>
<text x="1860" y="728" text-anchor="middle" font-size="20" font-weight="550" fill="#5c667a">The workflow can stop after Package and still produce handoff, inbox item, and report.</text>
<text x="1860" y="760" text-anchor="middle" font-size="20" font-weight="550" fill="#5c667a">Dispatch, native sessions, and GitHub write-back remain optional higher-level paths.</text>
<rect x="90" y="840" width="2180" height="210" rx="18" fill="#fff4dc" stroke="#e3b64b" stroke-width="2.3" filter="url(#shadow)"/>
<text x="1180" y="888" text-anchor="middle" font-size="31" font-weight="850" fill="#172033">Memory and Evaluation Feedback Loop</text>
<text x="1180" y="925" text-anchor="middle" font-size="21" font-weight="550" fill="#5c667a">Every exposure, approval, dispatch outcome, result artifact, and GitHub interaction becomes a raw event.</text>
<rect x="215" y="970" width="250" height="44" rx="999" fill="#ffffff" stroke="#dfc06c" stroke-width="1.5"/>
<text x="340.0" y="998.0" text-anchor="middle" font-size="17" font-weight="750" fill="#172033">raw event</text>
<path d="M 465 992 L 550 992" fill="none" stroke="#b99838" stroke-width="2.4" marker-end="url(#arrow)"/>
<rect x="550" y="970" width="250" height="44" rx="999" fill="#ffffff" stroke="#dfc06c" stroke-width="1.5"/>
<text x="675.0" y="998.0" text-anchor="middle" font-size="17" font-weight="750" fill="#172033">activation trace</text>
<path d="M 800 992 L 885 992" fill="none" stroke="#b99838" stroke-width="2.4" marker-end="url(#arrow)"/>
<rect x="885" y="970" width="250" height="44" rx="999" fill="#ffffff" stroke="#dfc06c" stroke-width="1.5"/>
<text x="1010.0" y="998.0" text-anchor="middle" font-size="17" font-weight="750" fill="#172033">write-back guard</text>
<path d="M 1135 992 L 1220 992" fill="none" stroke="#b99838" stroke-width="2.4" marker-end="url(#arrow)"/>
<rect x="1220" y="970" width="250" height="44" rx="999" fill="#ffffff" stroke="#dfc06c" stroke-width="1.5"/>
<text x="1345.0" y="998.0" text-anchor="middle" font-size="17" font-weight="750" fill="#172033">dreaming candidate</text>
<path d="M 1470 992 L 1555 992" fill="none" stroke="#b99838" stroke-width="2.4" marker-end="url(#arrow)"/>
<rect x="1555" y="970" width="250" height="44" rx="999" fill="#ffffff" stroke="#dfc06c" stroke-width="1.5"/>
<text x="1680.0" y="998.0" text-anchor="middle" font-size="17" font-weight="750" fill="#172033">approved profile hint</text>
<path d="M 1805 992 L 1890 992" fill="none" stroke="#b99838" stroke-width="2.4" marker-end="url(#arrow)"/>
<rect x="1890" y="970" width="250" height="44" rx="999" fill="#ffffff" stroke="#dfc06c" stroke-width="1.5"/>
<text x="2015.0" y="998.0" text-anchor="middle" font-size="17" font-weight="750" fill="#172033">ranking / routing improvement</text>
<path d="M 2140 992 L 2325 992 L 2325 150" fill="none" stroke="#8490a3" stroke-width="3" marker-end="url(#arrow)" stroke-dasharray="9 8"/>
<path d="M 2325 150 L 255 150" fill="none" stroke="#8490a3" stroke-width="3" marker-end="url(#arrow)" stroke-dasharray="9 8"/>
<path d="M 255 150 L 255 220" fill="none" stroke="#8490a3" stroke-width="3" marker-end="url(#arrow)" stroke-dasharray="9 8"/>
<rect x="1030.0" y="130" width="220" height="32" rx="16" fill="#f7f8fb" opacity="0.96"/>
<text x="1140" y="153" text-anchor="middle" font-size="16" font-weight="750" fill="#5c667a">next run starts smarter</text>
</svg>